<?xml version="1.0" encoding="UTF-8"?>
<svg width="1573px" height="557px" viewBox="0 0 1573 557" version="1.1" xmlns="http://www.w3.org/2000/svg" xmlns:xlink="http://www.w3.org/1999/xlink">
    <!-- Generator: Sketch 52.4 (67378) - http://www.bohemiancoding.com/sketch -->
    <title>Group</title>
    <desc>Created with Sketch.</desc>
    <g id="Error-Pages" stroke="none" stroke-width="1" fill="none" fill-rule="evenodd">
        <g id="404" transform="translate(-5.000000, -388.000000)" fill="#FFFFFF">
            <g id="Group" transform="translate(0.000000, 380.000000)">
                <path d="M269.257021,339.649765 L269.257021,120.538005 L143.947503,339.649765 L269.257021,339.649765 Z M401.085531,339.649765 L466.999786,339.649765 L466.999786,450.31227 L401.085531,450.31227 L401.085531,564.663526 L269.257021,564.663526 L269.257021,450.31227 L5.6,450.31227 L5.6,357.355766 L214.207753,8.4 L401.085531,8.4 L401.085531,339.649765 Z" id="4"></path>
                <path d="M1379.04431,339.649765 L1379.04431,120.538005 L1253.34638,339.649765 L1379.04431,339.649765 Z M1511.28144,339.649765 L1577.4,339.649765 L1577.4,450.31227 L1511.28144,450.31227 L1511.28144,564.663526 L1379.04431,564.663526 L1379.04431,450.31227 L1114.57006,450.31227 L1114.57006,357.355766 L1323.82441,8.4 L1511.28144,8.4 L1511.28144,339.649765 Z" id="4-"></path>
                <path d="M900.654257,266.194321 C875.327171,266.194321 854.777376,245.471839 854.777376,219.862619 C854.777376,194.283624 875.327171,173.530099 900.654257,173.530099 C925.982961,173.530099 946.531139,194.283624 946.531139,219.862619 C946.531139,245.471839 925.982961,266.194321 900.654257,266.194321 M640.684184,219.862619 C640.684184,194.283624 661.233979,173.530099 686.561066,173.530099 C711.88977,173.530099 732.437947,194.283624 732.437947,219.862619 C732.437947,245.471839 711.88977,266.194321 686.561066,266.194321 C661.233979,266.194321 640.684184,245.471839 640.684184,219.862619 M793.593102,15.1604058 C564.207077,15.1604058 564.273406,231.376107 564.273406,231.376107 L564.273406,561.241557 L621.645392,484.103471 L678.917885,561.241557 L736.196849,484.103471 L793.479048,561.241557 L850.762057,484.103471 L908.046683,561.241557 L965.375798,484.103471 L1022.9128,561.241557 L1022.9128,231.376107 C1022.9128,231.376107 1022.97832,15.1604058 793.593102,15.1604058" id="Ghost"></path>
            </g>
        </g>
    </g>
</svg>