<?xml version="1.0" encoding="UTF-8"?>
<svg width="500px" height="500px" viewBox="0 0 500 500" version="1.1" xmlns="http://www.w3.org/2000/svg" xmlns:xlink="http://www.w3.org/1999/xlink">
    <!-- Generator: Sketch 52.4 (67378) - http://www.bohemiancoding.com/sketch -->
    <title>ARC Logo</title>
    <desc>Created with Sketch.</desc>
    <defs>
        <linearGradient x1="0%" y1="0%" x2="101.999998%" y2="100.999999%" id="linearGradient-1">
            <stop stop-color="#3023AE" offset="0%"></stop>
            <stop stop-color="#C86DD7" offset="100%"></stop>
        </linearGradient>
    </defs>
    <g id="ARC-Logo" stroke="none" stroke-width="1" fill="none" fill-rule="evenodd">
        <g id="arc-logo">
            <circle id="background" fill="url(#linearGradient-1)" fill-rule="nonzero" cx="250" cy="250" r="250"></circle>
            <g transform="translate(87.000000, 191.000000)" fill="#FFFFFF" id="Combined-Shape">
                <path d="M228.600019,89.7306117 L228.318013,89.9672432 C207.824972,107.555575 191.527558,116.34961 179.425282,116.34961 C174.907019,116.34961 171.276327,114.574604 168.533096,111.024541 C165.789865,107.474477 164.41827,102.875601 164.41827,97.2277722 C164.41827,91.5799438 166.516004,83.7537848 170.711533,73.7490604 C174.907063,63.7443359 177.004796,56.8863615 177.004796,53.1749315 C177.004796,45.9134379 172.80933,40.5884225 164.41827,37.1997255 C159.254542,47.8499161 150.13747,59.5488135 137.066781,72.2967689 C132.728904,76.4739842 128.13585,81.2780528 118.985382,89.8533067 L118.985339,89.8590964 L118.938917,89.8968466 C118.914231,89.9199756 118.889513,89.9431315 118.864762,89.9663149 C118.864762,89.9632591 118.864762,89.9602036 118.864762,89.9571483 L117.651419,90.9438281 C99.4978538,107.396508 85.2091565,115.623464 74.7849945,115.623464 C69.7826323,115.623464 66.4343272,113.746976 64.7399787,109.993944 C63.0456302,106.240911 62.1984686,101.810332 62.1984686,96.7020729 L62.1984686,92.6288492 C54.4528755,101.181275 48.0386524,107.151747 42.9556069,110.540444 C37.8725614,113.929141 32.9106152,115.623464 28.0696195,115.623464 C20.8081259,115.623464 14.4745849,112.194477 9.06880634,105.336399 C3.66302779,98.4783222 0.960179063,90.369776 0.960179063,81.0105176 C0.960179063,63.5829331 6.44655857,48.4953894 17.4194822,35.747434 C27.5855732,23.9676778 38.6390142,18.077888 50.580137,18.077888 C55.4211327,18.077888 59.8183045,19.2881188 63.7717844,21.7086167 C67.7252642,24.1291145 71.4769796,28.001853 75.0270431,33.3269483 L79.1418689,18.077888 L99.2319006,18.077888 L86.6453747,69.1501374 C85.5158091,73.1490016 84.5476244,77.4270413 83.7407918,81.9843849 C82.9339592,86.5417286 82.5305489,89.7003048 82.5305489,91.4602085 C82.5305489,94.4984375 83.4987336,96.0175293 85.4351318,96.0175293 C88.0169962,96.0175293 92.2528039,93.6588399 98.1426821,88.9413905 C104.03256,84.223941 110.930876,77.7076047 118.837835,69.392186 L118.837835,69.3972673 L119.137416,69.124087 L119.137417,69.1241938 C127.991902,60.4143527 132.424675,55.3916607 136.098587,51.2385429 C143.360081,43.0088502 148.765778,35.1020091 152.315842,27.5177825 C150.05671,22.9995198 148.927161,19.3688275 148.927161,16.6255966 C148.927161,11.6232344 149.451595,7.71015486 150.500477,4.88624069 C151.54936,2.06232653 154.090844,0.650390625 158.125007,0.650390625 C164.741035,0.650390625 168.855819,1.13448293 170.469485,2.10268208 C172.08315,3.07088122 172.88997,5.32997866 172.88997,8.88004219 C172.88997,12.4301057 171.67974,17.4323929 169.259242,23.8870539 C177.488935,26.7916513 183.055996,29.1314308 185.960594,30.9064625 C193.060721,35.1019922 196.610731,42.0406486 196.610731,51.72264 C196.610731,56.4022692 195.481182,62.0500128 193.222051,68.6660403 C188.058322,83.673127 185.476496,91.9833783 185.476496,93.5970435 C185.476496,96.3402744 186.767409,97.7118693 189.349274,97.7118693 C196.441614,97.7118693 209.410725,88.2927638 228.256997,69.4542704 C228.260617,69.4506516 228.305287,69.4068107 228.374243,69.3282088 C228.532735,69.1516106 228.673853,68.9591007 228.794907,68.7533687 C228.979991,68.4486368 229.086447,68.1340955 229.136252,67.9757256 C229.137223,67.97081 229.138194,67.9658945 229.139165,67.9609793 C229.197155,67.7648949 229.238731,67.5617645 229.262303,67.3531793 C231.481059,56.6633544 236.33995,46.7736195 243.839033,37.6838226 C254.489223,24.7745008 266.430167,18.3199366 279.662222,18.3199366 C286.278249,18.3199366 291.522583,20.0142597 295.395379,23.4029567 C299.268176,26.7916537 301.204545,31.5518947 301.204545,37.6838226 C301.204545,43.1702845 299.994314,48.3339358 297.573816,53.1749315 C295.153318,58.0159272 291.764672,61.8886657 287.407776,64.7932631 C284.503179,63.5023309 282.082717,62.2517591 280.146319,61.0415102 C278.209921,59.8312612 276.434915,58.1772792 274.82125,56.0795144 C278.855413,50.5930526 281.356557,46.9220192 282.324756,45.0663042 C283.292955,43.2105892 283.777048,41.2338789 283.777048,39.1361141 C283.777048,34.9405845 281.51795,32.8428511 276.999687,32.8428511 C270.545026,32.8428511 264.130803,38.2485486 257.756826,49.0601057 C251.382848,59.8716628 248.195907,70.3603295 248.195907,80.5264205 C248.195907,86.6583484 249.970912,91.5799535 253.520976,95.2913836 C257.071039,99.0028136 261.669916,100.858501 267.317744,100.858501 C275.708804,100.858501 284.583829,98.2363341 293.943088,92.9919221 C303.302346,87.7475101 311.750715,79.8810101 321.27134,69.392186 L322.262771,89.9663149 C312.742146,99.0028402 303.181323,105.65911 293.580015,109.935322 C283.978707,114.211535 274.014473,116.34961 263.687016,116.34961 C249.809495,116.34961 239.885602,111.912097 233.915041,103.036938 C231.287992,99.1489052 229.516323,94.7134832 228.600019,89.7306117 Z M66.1695781,72.319461 L71.6421451,48.0919114 C66.1556833,41.6372504 62.5249909,37.6838299 60.7499592,36.2315312 C58.1680948,34.1337664 55.424905,33.0848997 52.5203076,33.0848997 C44.7721931,33.0848997 37.791935,37.4820715 31.5793238,46.2765471 C25.3667127,55.0710226 22.2604537,64.9545739 22.2604537,75.9274975 C22.2604537,82.8662581 23.3925237,88.4736607 25.6566978,92.7498735 C27.9208718,97.0260864 30.912411,99.1641608 34.6314051,99.1641608 C39.4850076,99.1641608 45.3079825,95.6166718 52.1005046,88.5215875 C56.7902192,83.2015349 61.4798635,77.8008801 66.1695781,72.319461 Z"></path>
            </g>
        </g>
    </g>
</svg>